<svg xmlns="http://www.w3.org/2000/svg" viewBox="0 0 100 100">
    <defs>
        <radialGradient id="grad" cx="50%" cy="50%" r="50%">
            <stop offset="0%" style="stop-color:hsl(36, 96%, 51%);" />
            <stop offset="100%" style="stop-color:hsl(0, 0%, 0%);" />
        </radialGradient>
    </defs>
    <rect width="100" height="100" rx="20" fill="url(#grad)" />
    <g transform="translate(30 25) scale(2.2) rotate(180, 20, 25)">
      <g fill="hsl(0, 0%, 0%)">
        <path d="M20 10 Q 22 15, 20 22 L 20 40 L 18 40 L 18 22 Q 16 15, 18 10 Z" />
        <path d="M14 12 Q 15 16, 14 20 L 14 25 L 12 25 L 12 20 Q 11 16, 12 12 Z" />
        <path d="M26 12 Q 25 16, 26 20 L 26 25 L 28 25 L 28 20 Q 29 16, 28 12 Z" />
        <path d="M14 12 A 6 6 0 0 1 26 12 L 24 12 A 4 4 0 0 0 16 12 Z" />
      </g>
    </g>
</svg>
